<?xml version="1.0" standalone="no"?>
<!DOCTYPE svg PUBLIC "-//W3C//DTD SVG 20010904//EN"
 "http://www.w3.org/TR/2001/REC-SVG-20010904/DTD/svg10.dtd">
<svg version="1.0" xmlns="http://www.w3.org/2000/svg"
 width="495.000000pt" height="495.000000pt" viewBox="0 0 495.000000 495.000000"
 preserveAspectRatio="xMidYMid meet">
<metadata>
Created by potrace 1.11, written by Peter Selinger 2001-2013
</metadata>
<g transform="translate(0.000000,495.000000) scale(0.100000,-0.100000)"
fill="#000000" stroke="none">
<path d="M2417 3913 c-19 -32 -49 -87 -65 -123 -61 -129 -130 -286 -137 -310
-8 -26 -14 -42 -64 -158 -17 -40 -31 -78 -31 -85 0 -6 -6 -23 -13 -37 -8 -14
-16 -34 -19 -45 -3 -11 -26 -90 -51 -175 -93 -317 -120 -483 -120 -725 0 -275
38 -427 156 -621 28 -47 57 -94 62 -103 6 -9 19 -26 30 -37 11 -12 27 -30 36
-40 53 -62 230 -194 261 -194 11 0 115 67 162 104 76 60 161 157 194 221 11
22 30 48 41 57 12 10 21 25 21 33 0 9 11 37 24 63 45 89 77 216 101 403 14
109 -27 490 -71 654 -13 50 -31 119 -40 155 -9 36 -20 74 -24 85 -4 11 -25 70
-47 130 -22 61 -45 126 -52 145 -7 19 -15 44 -18 55 -3 11 -22 56 -43 100 -20
44 -41 91 -45 105 -4 14 -25 61 -47 104 -22 43 -57 120 -79 169 -37 86 -63
127 -80 127 -4 0 -23 -26 -42 -57z"/>
<path d="M1355 3698 c-4 -57 -5 -242 -3 -411 l3 -308 25 -19 c14 -11 45 -27
70 -37 25 -9 77 -36 116 -60 39 -24 76 -43 81 -43 5 0 18 -9 30 -19 11 -10 33
-26 50 -35 17 -8 51 -31 75 -49 25 -19 50 -32 56 -28 5 3 22 54 36 114 14 59
44 171 66 248 22 77 40 149 40 159 0 11 -57 78 -132 156 -73 75 -142 147 -153
158 -32 33 -195 180 -219 196 -12 8 -37 30 -56 48 -19 17 -44 32 -56 32 -21 0
-22 -6 -29 -102z"/>
<path d="M3505 3751 c-25 -25 -82 -77 -171 -156 -112 -99 -404 -398 -404 -414
0 -4 22 -80 49 -168 28 -88 57 -200 66 -249 9 -49 20 -93 24 -97 12 -12 58 9
105 48 23 19 68 46 99 60 31 15 57 31 57 36 0 5 4 9 9 9 4 0 41 18 82 40 40
22 83 43 95 46 12 3 31 15 41 26 17 18 18 47 21 352 1 182 -1 365 -5 406 -7
65 -11 75 -28 78 -12 2 -30 -6 -40 -17z"/>
<path d="M450 3123 c0 -24 58 -212 76 -245 8 -14 14 -35 14 -45 0 -11 7 -28
15 -39 8 -10 15 -27 15 -37 0 -11 9 -30 20 -44 11 -14 23 -43 26 -64 4 -21 13
-44 20 -50 8 -6 14 -22 14 -35 0 -14 10 -41 23 -62 13 -20 45 -86 72 -147 27
-60 64 -134 82 -162 18 -29 38 -64 43 -78 18 -46 201 -329 263 -405 81 -99
237 -256 295 -296 75 -51 222 -130 303 -162 128 -51 324 -74 459 -54 64 10 63
30 -6 88 -75 65 -135 128 -196 209 -35 47 -130 238 -158 320 -39 113 -53 262
-47 491 l5 211 -24 26 c-13 14 -57 45 -96 68 -40 23 -100 59 -133 80 -71 43
-209 113 -245 124 -14 4 -38 17 -55 30 -16 12 -48 28 -69 35 -22 7 -85 33
-140 58 -56 24 -130 55 -166 67 -150 53 -226 82 -245 93 -21 11 -133 42 -153
42 -7 0 -12 -8 -12 -17z"/>
<path d="M4335 3091 c-38 -15 -97 -36 -130 -46 -33 -11 -67 -22 -75 -27 -18
-9 -65 -29 -145 -61 -301 -124 -565 -257 -758 -381 -98 -64 -100 -68 -91 -155
5 -42 9 -148 9 -236 -1 -168 -13 -253 -60 -405 -13 -41 -29 -95 -36 -120 -12
-40 -97 -180 -145 -240 -54 -66 -93 -105 -150 -151 -35 -28 -64 -57 -64 -64 0
-28 126 -40 265 -26 127 14 314 73 395 124 27 18 72 46 100 62 29 17 71 49 95
73 24 23 48 42 53 42 5 0 31 26 58 58 27 31 66 76 88 100 22 23 46 53 55 66 9
13 36 50 61 83 25 33 54 76 65 94 11 18 28 45 37 59 10 14 22 34 28 45 6 11
19 34 30 50 21 31 70 131 70 142 0 3 11 21 25 39 14 18 25 36 25 40 0 8 83
191 126 277 13 27 24 57 24 68 0 10 5 19 10 19 6 0 10 9 10 20 0 11 4 28 9 38
35 66 51 106 51 130 0 15 6 39 14 53 7 15 19 50 27 78 7 28 16 51 20 51 4 0
10 18 14 40 4 22 11 42 16 46 5 3 9 14 9 25 0 28 -50 24 -135 -10z"/>
<path d="M4059 1928 c-9 -7 -51 -65 -93 -128 -119 -179 -142 -207 -286 -350
-67 -66 -181 -160 -195 -160 -3 0 -27 -15 -53 -32 -26 -18 -77 -46 -112 -61
-36 -16 -78 -36 -94 -44 -16 -8 -74 -23 -128 -34 -174 -35 -186 -50 -58 -70
136 -21 415 4 620 56 52 13 109 26 125 30 51 10 319 97 330 106 5 5 17 9 26 9
10 0 62 19 116 41 54 23 118 49 143 58 25 9 79 33 120 52 41 20 100 47 130 60
94 40 220 110 220 122 0 22 -138 94 -350 182 -74 31 -148 62 -165 70 -67 29
-232 94 -255 100 -14 3 -32 0 -41 -7z"/>
<path d="M795 1903 c-22 -8 -90 -35 -151 -59 -61 -24 -117 -44 -125 -44 -8 -1
-32 -12 -54 -25 -42 -26 -77 -44 -159 -79 -107 -46 -231 -114 -234 -127 -1 -9
23 -27 60 -47 35 -18 88 -46 118 -62 30 -17 60 -30 66 -30 19 0 121 -50 134
-65 7 -8 18 -15 25 -15 7 0 75 -25 151 -55 77 -30 143 -55 147 -55 5 0 23 -6
40 -14 94 -40 475 -143 635 -170 163 -27 350 -39 446 -27 48 6 91 13 96 16 31
19 -6 35 -140 60 -46 8 -89 20 -94 25 -6 6 -16 10 -23 10 -35 0 -243 114 -323
178 -178 142 -325 304 -415 460 -20 34 -41 62 -46 62 -5 0 -18 18 -29 40 -18
34 -25 40 -53 39 -17 0 -50 -7 -72 -16z"/>
</g>
</svg>
